<svg xmlns="http://www.w3.org/2000/svg" viewBox="0 0 64 64" width="64" height="64">
  <path d="M9 8 H55 V36 C55 49 45 57 32 61 C19 57 9 49 9 36 Z" fill="#0d1520" stroke="#e0793d" stroke-width="3.5"/>
  <circle cx="19" cy="40" r="4.5" fill="#e0793d"/>
  <path d="M19 40 L31 24" stroke="#e0793d" stroke-width="5" stroke-linecap="round"/>
  <path d="M33 21 Q41 14 47 22" fill="none" stroke="#e0793d" stroke-width="1.8" stroke-linecap="round"/>
  <path d="M47 21 L48.2 24.8 L52 26 L48.2 27.2 L47 31 L45.8 27.2 L42 26 L45.8 24.8 Z" fill="#e0793d"/>
  <path d="M21 47 l4 4 l-4 4 l-4 -4 Z" fill="#e0793d"/>
  <path d="M32 47 l4 4 l-4 4 l-4 -4 Z" fill="#e0793d"/>
  <path d="M43 47 l4 4 l-4 4 l-4 -4 Z" fill="#e0793d"/>
</svg>
