<svg xmlns="http://www.w3.org/2000/svg" viewBox="0 0 900 430"><defs><radialGradient id="g"><stop stop-color="#deb986" stop-opacity=".23"/><stop offset="1" stop-color="#0b1220" stop-opacity="0"/></radialGradient><linearGradient id="h"><stop stop-color="#0b1220"/><stop offset="1" stop-color="#142536"/></linearGradient></defs><rect width="900" height="430" fill="url(#h)"/><circle cx="37" cy="19" r="2" fill="#deb986" opacity=".35"/><circle cx="150" cy="86" r="1" fill="#deb986" opacity=".35"/><circle cx="263" cy="153" r="1" fill="#deb986" opacity=".35"/><circle cx="376" cy="220" r="1" fill="#deb986" opacity=".35"/><circle cx="489" cy="287" r="2" fill="#deb986" opacity=".35"/><circle cx="602" cy="354" r="1" fill="#deb986" opacity=".35"/><circle cx="715" cy="421" r="1" fill="#deb986" opacity=".35"/><circle cx="828" cy="58" r="1" fill="#deb986" opacity=".35"/><circle cx="41" cy="125" r="2" fill="#deb986" opacity=".35"/><circle cx="154" cy="192" r="1" fill="#deb986" opacity=".35"/><circle cx="267" cy="259" r="1" fill="#deb986" opacity=".35"/><circle cx="380" cy="326" r="1" fill="#deb986" opacity=".35"/><circle cx="493" cy="393" r="2" fill="#deb986" opacity=".35"/><circle cx="606" cy="30" r="1" fill="#deb986" opacity=".35"/><circle cx="719" cy="97" r="1" fill="#deb986" opacity=".35"/><circle cx="832" cy="164" r="1" fill="#deb986" opacity=".35"/><circle cx="45" cy="231" r="2" fill="#deb986" opacity=".35"/><circle cx="158" cy="298" r="1" fill="#deb986" opacity=".35"/><circle cx="271" cy="365" r="1" fill="#deb986" opacity=".35"/><circle cx="384" cy="2" r="1" fill="#deb986" opacity=".35"/><circle cx="497" cy="69" r="2" fill="#deb986" opacity=".35"/><circle cx="610" cy="136" r="1" fill="#deb986" opacity=".35"/><circle cx="723" cy="203" r="1" fill="#deb986" opacity=".35"/><circle cx="836" cy="270" r="1" fill="#deb986" opacity=".35"/><circle cx="49" cy="337" r="2" fill="#deb986" opacity=".35"/><circle cx="162" cy="404" r="1" fill="#deb986" opacity=".35"/><circle cx="275" cy="41" r="1" fill="#deb986" opacity=".35"/><circle cx="388" cy="108" r="1" fill="#deb986" opacity=".35"/><circle cx="501" cy="175" r="2" fill="#deb986" opacity=".35"/><circle cx="614" cy="242" r="1" fill="#deb986" opacity=".35"/><circle cx="727" cy="309" r="1" fill="#deb986" opacity=".35"/><circle cx="840" cy="376" r="1" fill="#deb986" opacity=".35"/><circle cx="53" cy="13" r="2" fill="#deb986" opacity=".35"/><circle cx="166" cy="80" r="1" fill="#deb986" opacity=".35"/><circle cx="279" cy="147" r="1" fill="#deb986" opacity=".35"/><circle cx="392" cy="214" r="1" fill="#deb986" opacity=".35"/><circle cx="505" cy="281" r="2" fill="#deb986" opacity=".35"/><circle cx="618" cy="348" r="1" fill="#deb986" opacity=".35"/><circle cx="731" cy="415" r="1" fill="#deb986" opacity=".35"/><circle cx="844" cy="52" r="1" fill="#deb986" opacity=".35"/><circle cx="57" cy="119" r="2" fill="#deb986" opacity=".35"/><circle cx="170" cy="186" r="1" fill="#deb986" opacity=".35"/><circle cx="283" cy="253" r="1" fill="#deb986" opacity=".35"/><circle cx="396" cy="320" r="1" fill="#deb986" opacity=".35"/><circle cx="509" cy="387" r="2" fill="#deb986" opacity=".35"/><circle cx="622" cy="24" r="1" fill="#deb986" opacity=".35"/><circle cx="735" cy="91" r="1" fill="#deb986" opacity=".35"/><circle cx="848" cy="158" r="1" fill="#deb986" opacity=".35"/><circle cx="61" cy="225" r="2" fill="#deb986" opacity=".35"/><circle cx="174" cy="292" r="1" fill="#deb986" opacity=".35"/><ellipse cx="560" cy="205" rx="330" ry="280" fill="url(#g)"/><g fill="none" stroke="#deb986" opacity=".5"><ellipse cx="560" cy="205" rx="60" ry="28.799999999999997" transform="rotate(0 560 205)"/><ellipse cx="560" cy="205" rx="110" ry="52.8" transform="rotate(28 560 205)"/><ellipse cx="560" cy="205" rx="165" ry="79.2" transform="rotate(56 560 205)"/><ellipse cx="560" cy="205" rx="215" ry="103.2" transform="rotate(84 560 205)"/><path d="M0 330Q180 170 330 230T900 120" stroke-dasharray="3 9"/></g><circle cx="560" cy="205" r="14" fill="#deb986"/><circle cx="560" cy="205" r="28" fill="none" stroke="#deb986" opacity=".3"/></svg>