<svg xmlns="http://www.w3.org/2000/svg" viewBox="0 0 64 64" width="64" height="64">
  <circle cx="32" cy="32" r="29" fill="#0d1520" stroke="#9db4c9" stroke-width="3.5"/>
  <path d="M24 44 L40 44 L37 36 L27 36 Z" fill="#9db4c9"/>
  <path d="M30.5 22 h3 v14 h-3 Z" fill="#9db4c9"/>
  <path d="M22 12 L23.2 14.8 L26 16 L23.2 17.2 L22 20 L20.8 17.2 L18 16 L20.8 14.8 Z" fill="#dfe9f2"/>
  <path d="M32 7 L33.2 9.8 L36 11 L33.2 12.2 L32 15 L30.8 12.2 L28 11 L30.8 9.8 Z" fill="#dfe9f2"/>
  <path d="M42 12 L43.2 14.8 L46 16 L43.2 17.2 L42 20 L40.8 17.2 L38 16 L40.8 14.8 Z" fill="#dfe9f2"/>
  <path d="M21 47 l4 4 l-4 4 l-4 -4 Z" fill="#9db4c9"/>
  <path d="M32 47 l4 4 l-4 4 l-4 -4 Z" fill="#9db4c9"/>
  <path d="M43 47 l4 4 l-4 4 l-4 -4 Z" fill="#9db4c9"/>
</svg>
